<?xml version="1.0"?>
<svg xmlns:rdf="http://www.w3.org/1999/02/22-rdf-syntax-ns#" xmlns="http://www.w3.org/2000/svg" xmlns:cc="http://web.resource.org/cc/" xmlns:dc="http://purl.org/dc/elements/1.1/" xmlns:svg="http://www.w3.org/2000/svg" id="svg65605" viewBox="0 0 159.3 173.68" version="1.0">
  <defs id="defs65607">
    <filter id="filter3647" y="-.33591" width="1.7068" height="1.6718" x="-.35342">
      <feGaussianBlur id="feGaussianBlur3649" stdDeviation="17.332173"/>
    </filter>
  </defs>
  <g id="layer1" transform="translate(-648.83 -780.93)">
    <g id="g3651" transform="matrix(.88460 0 0 .88460 82.71 99.075)">
      <path id="path3198" style="color:#000000" d="m357.44 503.06a49.671 49.671 0 1 1 -99.34 0 49.671 49.671 0 1 1 99.34 0z" fill-rule="evenodd" transform="matrix(1.0803 0 0 .25246 395 796.83)" filter="url(#filter3647)" stroke="#666" stroke-width="1.2631" fill="#483737"/>
      <path id="path2160" style="color:#000000" d="m357.44 503.06a49.671 49.671 0 1 1 -99.34 0 49.671 49.671 0 1 1 99.34 0z" fill-rule="evenodd" transform="matrix(1.3495 0 0 1.4205 301.41 137.79)" stroke="#333" stroke-width="1.2631" fill="#f60"/>
      <path id="path3160" d="m724.3 782.26c14.98 12.94 24.53 32.55 24.53 54.52 0 38.95-30.01 70.56-67.01 70.56-2.57 0-5.12-0.15-7.61-0.45 11.57 10.02 26.39 16.04 42.53 16.04 37 0 67.03-31.61 67.03-70.56 0-36.25-26.03-66.15-59.47-70.11z" style="color:#000000" fill="#d45500" fill-rule="evenodd"/>
      <path id="path3252" style="color:#000000" d="m649.74 848.52s18.02-36.28 65.48-40.09c51.25-4.11 66.48 24.69 66.48 24.69" stroke="#e3dbdb" stroke-width=".65577" fill="none"/>
      <path id="path3110" d="m649.74 850.31s18.02-36.89 65.48-40.69c51.25-4.11 66.48 25.29 66.48 25.29" stroke="#666" stroke-width="1.7487" fill="none"/>
      <path id="path3156" style="color:#000000" d="m712.32 781.86s-40.49 11.3-37.44 40.49c3.71 35.16 103.06 55.35 103.06 55.35" stroke="#e3dbdb" stroke-width=".65577" fill="none"/>
      <path id="path3114" style="color:#000000" d="m714.29 781.86s-41.24 11.3-38.19 40.49c3.71 35.16 103.27 54.5 103.27 54.5" stroke="#4d4d4d" stroke-width="1.7487" fill="none"/>
      <path id="path3170" style="color:#000000" d="m663.01 809.02s-11.13 29.47 18.91 76.23c21.82 33.97 63.48 30.66 63.48 30.66" stroke="#e3dbdb" stroke-width=".65577" fill="none"/>
      <path id="path3112" style="color:#000000" d="m664 809.02s-11.12 29.47 19.42 76.12c22.1 33.77 64.04 29.83 64.04 29.83" stroke="#4d4d4d" stroke-width="1.7487" fill="none"/>
      <path id="path3172" style="color:#000000" d="m652.48 831.39s-2.78 12.43 0.24 29.17c3.03 16.73 11.63 36.61 11.63 36.61" stroke="#e3dbdb" stroke-width=".65577" fill="none"/>
      <path id="path3116" style="color:#000000" d="m652.75 831.28s-1.9 12.54 1.12 29.28c3.03 16.73 11.3 36.73 11.3 36.73" stroke="#4d4d4d" stroke-width="1.7487" fill="none"/>
      <path id="path65594" d="m649.74 850.31s18.02-36.89 65.48-40.69c51.25-4.11 66.48 25.29 66.48 25.29" stroke="#4d4d4d" stroke-width="1.7487" fill="none"/>
      <path id="path3163" d="m357.44 503.06a49.671 49.671 0 1 1 -99.34 0 49.671 49.671 0 1 1 99.34 0z" style="color:#000000" fill="none" transform="matrix(1.3495 0 0 1.4205 301.41 137.79)"/>
      <path id="path65602" style="color:#000000" d="m357.44 503.06a49.671 49.671 0 1 1 -99.34 0 49.671 49.671 0 1 1 99.34 0z" transform="matrix(1.3495 0 0 1.4205 301.41 137.79)" stroke="#4d4d4d" stroke-width="1.2631" fill="none"/>
    </g>
  </g>
  <metadata>
    <rdf:RDF>
      <cc:Work>
        <dc:format>image/svg+xml</dc:format>
        <dc:type rdf:resource="http://purl.org/dc/dcmitype/StillImage"/>
        <cc:license rdf:resource="http://creativecommons.org/licenses/publicdomain/"/>
        <dc:publisher>
          <cc:Agent rdf:about="http://openclipart.org/">
            <dc:title>Openclipart</dc:title>
          </cc:Agent>
        </dc:publisher>
        <dc:title>Basketball</dc:title>
        <dc:date>2006-11-04T07:07:23</dc:date>
        <dc:description>A clipart, non photo-realistical,  basketball including hinted-at light and shadow.&#xD;\n&#xD;\nThe blur of the shadow below the basketball apparently is not supported by Firefox in which I checked. It looks sweet in Inkscape itself though.</dc:description>
        <dc:source>http://openclipart.org/detail/1922/basketball-by-stellaris</dc:source>
        <dc:creator>
          <cc:Agent>
            <dc:title>Stellaris</dc:title>
          </cc:Agent>
        </dc:creator>
        <dc:subject>
          <rdf:Bag>
            <rdf:li>basketball</rdf:li>
            <rdf:li>clip art</rdf:li>
            <rdf:li>clipart</rdf:li>
            <rdf:li>image</rdf:li>
            <rdf:li>media</rdf:li>
            <rdf:li>png</rdf:li>
            <rdf:li>public domain</rdf:li>
            <rdf:li>remix problem</rdf:li>
            <rdf:li>sport</rdf:li>
            <rdf:li>svg</rdf:li>
          </rdf:Bag>
        </dc:subject>
      </cc:Work>
      <cc:License rdf:about="http://creativecommons.org/licenses/publicdomain/">
        <cc:permits rdf:resource="http://creativecommons.org/ns#Reproduction"/>
        <cc:permits rdf:resource="http://creativecommons.org/ns#Distribution"/>
        <cc:permits rdf:resource="http://creativecommons.org/ns#DerivativeWorks"/>
      </cc:License>
    </rdf:RDF>
  </metadata>
</svg>
