<svg xmlns="http://www.w3.org/2000/svg" viewBox="0 0 278.19 418.62"><defs><style>.cls-1{fill:#ff610d;}.cls-2{fill:#fff;}.cls-3{fill:#e24a07;}</style></defs><g id="Calque_2" data-name="Calque 2"><g id="Calque_8" data-name="Calque 8"><path class="cls-1" d="M278.19,139.1c0,76.82-139.09,279.52-139.09,279.52S0,215.92,0,139.1a139.1,139.1,0,1,1,278.19,0Z"/><circle class="cls-2" cx="139.1" cy="132.97" r="65.38" transform="translate(-53.28 137.3) rotate(-45)"/><path class="cls-3" d="M23.84,151.31A120.84,120.84,0,0,1,240.46,77.65,120.85,120.85,0,1,0,39.89,211.54,120.32,120.32,0,0,1,23.84,151.31Z"/><path class="cls-3" d="M106.29,365.42c19,31.75,32.81,53.2,32.81,53.2S278.19,215.92,278.19,139.1c0-4-.21-8-.54-12a337.36,337.36,0,0,1-22.78,62c-26.33,54.8-65.26,89.92-106.73,134.38C134.77,337.8,120.85,352,106.29,365.42Z"/><ellipse cx="141.87" cy="147.04" rx="106.94" ry="107.54"/><ellipse class="cls-1" cx="141.87" cy="147.04" rx="94.84" ry="95.38"/><rect x="40.41" y="142.99" width="202.93" height="8.09"/><path d="M244.75,152.5H39V141.57H244.75ZM41.82,149.66h200.1v-5.25H41.82Z"/><path d="M78.5,227.11l-5.73-5.69c.28-.28,27.18-28.34,27.18-74.16,0-46-27.6-74.3-27.88-74.58L77.77,67C79,68.21,108,98,108,147.26S79.71,225.88,78.5,227.11Z"/><path d="M78.51,229.11l-7.73-7.67,1-1c.27-.28,26.78-28.12,26.78-73.17C98.54,102,71.35,74,71.08,73.69l-1-1L77.77,65l1,1c1.25,1.26,30.64,31.42,30.64,81.3S80.72,226.87,79.5,228.11Zm-3.78-7.74,3.73,3.71c5.13-5.67,28.13-33.55,28.13-77.82S83,74.71,77.75,69L74,72.72c5,5.54,27.32,32.85,27.32,74.54C101.36,188.63,79.58,215.83,74.73,221.37Z"/><path d="M205.25,227.11c-1.21-1.23-29.51-30.57-29.51-79.85s29-79,30.24-80.29l5.69,5.71c-.27.28-27.88,28.76-27.88,74.58,0,46,26.91,73.88,27.18,74.16Z"/><path d="M205.24,229.11l-1-1c-1.22-1.24-29.91-30.94-29.91-80.85s29.4-80,30.65-81.3l1-1,7.68,7.71-1,1c-.27.28-27.48,28.71-27.48,73.59,0,45.25,26.51,72.89,26.77,73.16l1,1ZM206,69c-5.22,5.69-28.85,33.9-28.85,78.26s23,72.15,28.13,77.81l3.73-3.7c-4.87-5.52-26.63-32.52-26.63-74.11s22.31-69,27.33-74.54Z"/><rect x="137.68" y="45.84" width="8.39" height="202.38"/><path d="M147.48,249.65H136.27V44.42h11.21Zm-8.39-2.84h5.56V47.26h-5.56Z"/></g></g></svg>